<svg width="141" height="41" viewBox="0 0 141 41" fill="none" xmlns="http://www.w3.org/2000/svg">
<g clip-path="url(#clip0_331_2)">
<path d="M54.69 16.5311V25.5529C54.69 26.805 54.309 27.7808 53.5468 28.4804C52.7847 29.1678 51.7642 29.5115 50.4854 29.5115C49.1936 29.5115 48.1473 29.1556 47.3464 28.4436C46.5584 27.7317 46.1644 26.7375 46.1644 25.4609H48.8771C48.89 26.0133 49.0257 26.4428 49.284 26.7497C49.5553 27.0566 49.9429 27.21 50.4466 27.21C50.9375 27.21 51.3121 27.0627 51.5704 26.7681C51.8288 26.4735 51.958 26.0685 51.958 25.5529V16.5311H54.69Z" fill="#00B6A9"/>
<path d="M62.621 29.5483C61.5876 29.5483 60.6575 29.3335 59.8308 28.9039C59.0041 28.462 58.3517 27.8422 57.8738 27.0443C57.4088 26.2464 57.1763 25.3259 57.1763 24.2826C57.1763 23.2392 57.4152 22.3186 57.8932 21.5208C58.384 20.7229 59.0493 20.1092 59.8889 19.6796C60.7286 19.2377 61.6651 19.0167 62.6985 19.0167C63.7319 19.0167 64.6684 19.2377 65.5081 19.6796C66.3477 20.1092 67.0065 20.7229 67.4845 21.5208C67.9753 22.3186 68.2208 23.2392 68.2208 24.2826C68.2208 25.3259 67.9689 26.2464 67.4651 27.0443C66.9742 27.8422 66.3025 28.462 65.4499 28.9039C64.6103 29.3335 63.6673 29.5483 62.621 29.5483ZM62.621 27.3021C63.1119 27.3021 63.5704 27.1916 63.9967 26.9707C64.4359 26.7374 64.7847 26.3938 65.0431 25.9396C65.3014 25.4854 65.4306 24.9331 65.4306 24.2826C65.4306 23.3129 65.1593 22.5703 64.6168 22.0547C64.0871 21.5269 63.4348 21.263 62.6598 21.263C61.8847 21.263 61.2324 21.5269 60.7027 22.0547C60.186 22.5703 59.9277 23.3129 59.9277 24.2826C59.9277 25.2523 60.1796 26.001 60.6834 26.5288C61.2001 27.0443 61.8459 27.3021 62.621 27.3021Z" fill="#00B6A9"/>
<path d="M72.9235 20.6738C73.2722 20.1828 73.7502 19.7839 74.3573 19.477C74.9774 19.1702 75.6815 19.0167 76.4694 19.0167C77.3866 19.0167 78.2133 19.2315 78.9496 19.6612C79.6988 20.0908 80.2866 20.7045 80.7128 21.5024C81.152 22.288 81.3717 23.2024 81.3717 24.2457C81.3717 25.2891 81.152 26.2158 80.7128 27.0259C80.2866 27.8237 79.6988 28.4436 78.9496 28.8855C78.2133 29.3274 77.3866 29.5483 76.4694 29.5483C75.6685 29.5483 74.9645 29.401 74.3573 29.1064C73.7631 28.7996 73.2852 28.4068 72.9235 27.9281V29.3826H70.2107V15.7578H72.9235V20.6738ZM78.6008 24.2457C78.6008 23.632 78.4652 23.1042 78.1939 22.6623C77.9356 22.2081 77.5868 21.8645 77.1476 21.6312C76.7213 21.398 76.2562 21.2814 75.7524 21.2814C75.2616 21.2814 74.7965 21.4042 74.3573 21.6497C73.9311 21.8829 73.5822 22.2266 73.311 22.6807C73.0526 23.1349 72.9235 23.6688 72.9235 24.2826C72.9235 24.8963 73.0526 25.4302 73.311 25.8843C73.5822 26.3385 73.9311 26.6883 74.3573 26.9338C74.7965 27.1671 75.2616 27.2837 75.7524 27.2837C76.2562 27.2837 76.7213 27.1609 77.1476 26.9154C77.5868 26.6699 77.9356 26.3201 78.1939 25.8659C78.4652 25.4118 78.6008 24.8718 78.6008 24.2457Z" fill="#00B6A9"/>
<path d="M82.6841 22.9385C82.6841 21.6742 82.9812 20.5449 83.5754 19.5507C84.1825 18.5441 85.0029 17.7647 86.0363 17.2123C87.0826 16.6477 88.2517 16.3654 89.5435 16.3654C91.0548 16.3654 92.3791 16.7336 93.5158 17.4701C94.6526 18.2066 95.447 19.2254 95.8992 20.5265H92.7795C92.4694 19.9128 92.0302 19.4525 91.4618 19.1456C90.9064 18.8387 90.2604 18.6853 89.5241 18.6853C88.7361 18.6853 88.0321 18.8633 87.412 19.2193C86.8049 19.563 86.3269 20.054 85.9782 20.6922C85.6423 21.3305 85.4744 22.0793 85.4744 22.9385C85.4744 23.7854 85.6423 24.5341 85.9782 25.1847C86.3269 25.823 86.8049 26.3201 87.412 26.6761C88.0321 27.0198 88.7361 27.1916 89.5241 27.1916C90.2604 27.1916 90.9064 27.0382 91.4618 26.7313C92.0302 26.4122 92.4694 25.9457 92.7795 25.332H95.8992C95.447 26.6454 94.6526 27.6703 93.5158 28.4068C92.392 29.131 91.0677 29.4931 89.5435 29.4931C88.2517 29.4931 87.0826 29.2169 86.0363 28.6646C85.0029 28.0999 84.1825 27.3205 83.5754 26.3262C82.9812 25.332 82.6841 24.2028 82.6841 22.9385Z" fill="#0068C5"/>
<path d="M97.5187 24.2457C97.5187 23.2147 97.7318 22.3002 98.1581 21.5024C98.5973 20.7045 99.185 20.0908 99.9213 19.6612C100.671 19.2315 101.504 19.0167 102.421 19.0167C103.222 19.0167 103.919 19.1702 104.514 19.477C105.121 19.7839 105.605 20.1706 105.967 20.637V19.1824H108.699V29.3826H105.967V27.8913C105.618 28.37 105.134 28.7689 104.514 29.088C103.906 29.3949 103.202 29.5483 102.402 29.5483C101.497 29.5483 100.671 29.3274 99.9213 28.8855C99.185 28.4436 98.5973 27.8237 98.1581 27.0259C97.7318 26.2158 97.5187 25.2891 97.5187 24.2457ZM105.967 24.2826C105.967 23.6565 105.838 23.1226 105.579 22.6807C105.321 22.2266 104.972 21.8829 104.533 21.6497C104.094 21.4042 103.622 21.2814 103.118 21.2814C102.615 21.2814 102.15 21.398 101.723 21.6312C101.297 21.8645 100.948 22.2081 100.677 22.6623C100.419 23.1042 100.29 23.632 100.29 24.2457C100.29 24.8595 100.419 25.3995 100.677 25.8659C100.948 26.3201 101.297 26.6699 101.723 26.9154C102.163 27.1609 102.628 27.2837 103.118 27.2837C103.622 27.2837 104.094 27.1671 104.533 26.9338C104.972 26.6883 105.321 26.3446 105.579 25.9028C105.838 25.4486 105.967 24.9086 105.967 24.2826Z" fill="#0068C5"/>
<path d="M110.651 24.2457C110.651 23.2147 110.864 22.3002 111.29 21.5024C111.729 20.7045 112.323 20.0908 113.073 19.6612C113.822 19.2315 114.655 19.0167 115.572 19.0167C116.27 19.0167 116.935 19.164 117.568 19.4586C118.201 19.7409 118.705 20.1215 119.079 20.6002V15.7578H121.831V29.3826H119.079V27.8728C118.743 28.3761 118.272 28.7812 117.665 29.088C117.058 29.3949 116.354 29.5483 115.553 29.5483C114.649 29.5483 113.822 29.3274 113.073 28.8855C112.323 28.4436 111.729 27.8237 111.29 27.0259C110.864 26.2158 110.651 25.2891 110.651 24.2457ZM119.099 24.2826C119.099 23.6565 118.97 23.1226 118.711 22.6807C118.453 22.2266 118.104 21.8829 117.665 21.6497C117.226 21.4042 116.754 21.2814 116.25 21.2814C115.747 21.2814 115.282 21.398 114.855 21.6312C114.429 21.8645 114.08 22.2081 113.809 22.6623C113.551 23.1042 113.421 23.632 113.421 24.2457C113.421 24.8595 113.551 25.3995 113.809 25.8659C114.08 26.3201 114.429 26.6699 114.855 26.9154C115.294 27.1609 115.759 27.2837 116.25 27.2837C116.754 27.2837 117.226 27.1671 117.665 26.9338C118.104 26.6883 118.453 26.3446 118.711 25.9028C118.97 25.4486 119.099 24.9086 119.099 24.2826Z" fill="#0068C5"/>
<path d="M134.459 24.0616C134.459 24.4299 134.433 24.7612 134.381 25.0558H126.534C126.599 25.7923 126.87 26.3692 127.348 26.7865C127.826 27.2039 128.414 27.4125 129.111 27.4125C130.119 27.4125 130.836 27.0013 131.262 26.1789H134.188C133.878 27.1609 133.283 27.971 132.405 28.6093C131.527 29.2353 130.448 29.5483 129.169 29.5483C128.136 29.5483 127.206 29.3335 126.379 28.9039C125.565 28.462 124.926 27.8422 124.461 27.0443C124.009 26.2464 123.783 25.3259 123.783 24.2826C123.783 23.2269 124.009 22.3002 124.461 21.5024C124.913 20.7045 125.546 20.0908 126.36 19.6612C127.173 19.2315 128.11 19.0167 129.169 19.0167C130.19 19.0167 131.1 19.2254 131.901 19.6427C132.715 20.0601 133.342 20.6554 133.781 21.4287C134.233 22.1898 134.459 23.0674 134.459 24.0616ZM131.649 23.3251C131.636 22.6623 131.385 22.1345 130.894 21.7417C130.403 21.3367 129.802 21.1341 129.092 21.1341C128.42 21.1341 127.852 21.3305 127.387 21.7233C126.934 22.1038 126.657 22.6377 126.553 23.3251H131.649Z" fill="#0068C5"/>
<path d="M139.597 21.2998V26.2342C139.597 26.5779 139.681 26.8295 139.849 26.9891C140.03 27.1364 140.327 27.21 140.741 27.21H142V29.3826H140.295C138.008 29.3826 136.865 28.327 136.865 26.2158V21.2998H135.586V19.1824H136.865V16.66H139.597V19.1824H142V21.2998H139.597Z" fill="#0068C5"/>
<path d="M15 19.308C15 15.0917 18.418 11.6737 22.6344 11.6737H31.6017C35.818 11.6737 39.2361 15.0917 39.2361 19.308V28.2754C39.2361 32.4917 35.818 35.9098 31.6017 35.9098H22.6344C18.418 35.9098 15 32.4917 15 28.2754V19.308Z" fill="#0068C5"/>
<path d="M40.064 21.7488C40.4597 22.1446 41.1355 21.9635 41.2804 21.4229L44.9744 7.63667C45.1193 7.09604 44.6246 6.60132 44.0839 6.74619L30.2977 10.4402C29.7571 10.5851 29.576 11.2609 29.9717 11.6566L32.0002 13.6851C32.2557 13.9406 32.2848 14.3449 32.0686 14.6344L20.044 30.7313C19.5418 31.4036 20.3894 32.2512 21.0617 31.749L37.1586 19.7244C37.4481 19.5082 37.8524 19.5373 38.1079 19.7928L40.064 21.7488Z" fill="#00B6A9"/>
</g>
<defs>
<clipPath id="clip0_331_2">
<rect width="141" height="41" fill="white"/>
</clipPath>
</defs>
</svg>
